<svg xmlns="http://www.w3.org/2000/svg" viewBox="0 0 64 64" width="64" height="64">
<title>Ms. Snapshotini: a camera with its flash</title>
<rect x="4" y="24" width="50" height="34" rx="6" fill="#3A3F44"/><path d="M18 24l4-7h12l4 7z" fill="#3A3F44"/><circle cx="29" cy="41" r="13" fill="#C9CED6"/><circle cx="29" cy="41" r="9" fill="#5C8FC7"/><circle cx="25" cy="37" r="3" fill="#BFD8F2"/><rect x="8" y="28" width="4" height="4" fill="#3BA55C"/><rect x="12" y="28" width="4" height="4" fill="#F2F2F2"/><rect x="16" y="28" width="4" height="4" fill="#E5483B"/><rect x="40" y="27" width="10" height="6" rx="2" fill="#FFE27A"/><g transform="translate(46 22) scale(1.15) translate(-50 -15)"><path d="M50 2l2.6 6.7 6.6-2.7-2.7 6.6 6.7 2.6-6.7 2.6 2.7 6.6-6.6-2.7L50 28l-2.6-6.7-6.6 2.7 2.7-6.6-6.7-2.6 6.7-2.6-2.7-6.6 6.6 2.7z" fill="#FFD84D" stroke="#C9952E" stroke-width="1.5" stroke-linejoin="round"/></g>
</svg>
